<svg height="512" viewBox="0 0 64 64" width="512" xmlns="http://www.w3.org/2000/svg"><path d="m21 3h7v8h-7z" fill="#ffbcab"/><path d="m21 3v8h-3a4 4 0 1 1 0-8z" fill="#ff6243"/><path d="m28 3h25v8h-25z" fill="#ff6243"/><path d="m55 11v25h-41v-29a4 4 0 0 0 4 4z" fill="#ffa18e"/><path d="m47 11v13l-4-6-4 6v-13z" fill="#57565c"/><path d="m46 11v13l-4-6-4 6v-13z" fill="#ffda44"/><path d="m23 36v12h-6-1v-12z" fill="#00d7df"/><path d="m11 48h7v12h-7z" fill="#ed539d"/><path d="m16 36v12h-2a6 6 0 0 1 -6-6 6.009 6.009 0 0 1 6-6z" fill="#009698"/><path d="m11 48v12h-2a6 6 0 0 1 -6-6 6.009 6.009 0 0 1 6-6z" fill="#c61469"/><path d="m18 48h37v12h-37z" fill="#c61469"/><path d="m23 36h38v12h-38z" fill="#009698"/><rect fill="#ffb4a5" height="15" rx="3" width="6" x="16" y="14"/></svg>