<svg height="496pt" viewBox="0 0 496 496" width="496pt" xmlns="http://www.w3.org/2000/svg"><path d="m488 248c0 132.546875-107.453125 240-240 240s-240-107.453125-240-240 107.453125-240 240-240 240 107.453125 240 240zm0 0" fill="#85d3c1"/><g fill="#ff958a"><path d="m359.359375 315.039062-15.359375 68.960938-16 8 8 24-15.199219 60.71875c-10.5625 3.359375-21.359375 6-32.480469 7.839844l10.320313-124.320313 5.039063-60.078125zm0 0"/><path d="m408 424 1.441406 1.519531c-25.203125 22.960938-55.363281 40.640625-88.640625 51.199219l15.199219-60.71875-8-24 16-8 15.359375-68.960938 18.960937 5.039063c17.519532 4.640625 29.679688 20.5625 29.679688 38.640625zm0 0"/><path d="m160 416 15.199219 60.71875c-33.277344-10.558594-63.4375-28.238281-88.640625-51.199219l1.441406-1.519531v-65.28125c0-18.078125 12.160156-34 29.679688-38.640625l18.960937-5.039063 15.359375 68.960938 16 8zm0 0"/><path d="m197.359375 360.238281 10.320313 124.320313c-11.121094-1.839844-21.917969-4.480469-32.480469-7.839844l-15.199219-60.71875 8-24-16-8-15.359375-68.960938 55.679687-14.878906zm0 0"/></g><path d="m298.640625 360.238281-10.320313 124.320313c-2.878906.5625-5.761718.960937-8.640624 1.28125l-15.679688-109.839844 8-24 1.601562-3.199219 22.398438 11.199219zm0 0" fill="#f9d48a"/><path d="m303.679688 300.160156-5.039063 60.078125-2.640625-.238281-48-24 40-40zm0 0" fill="#f9d48a"/><path d="m248 336-48 24-2.640625.238281-5.039063-60.078125 15.679688-4.160156zm0 0" fill="#f9d48a"/><path d="m224 352 8 24-15.679688 109.839844c-2.878906-.320313-5.761718-.71875-8.640624-1.28125l-10.320313-124.320313 2.640625-.238281 22.398438-11.199219zm0 0" fill="#f9d48a"/><path d="m273.601562 348.800781-1.601562 3.199219-8 24h-32l-8-24-1.601562-3.199219 25.601562-12.800781zm0 0" fill="#ff958a"/><path d="m264 376 15.679688 109.839844c-10.398438 1.441406-20.960938 2.160156-31.679688 2.160156s-21.28125-.71875-31.679688-2.160156l15.679688-109.839844zm0 0" fill="#ff958a"/><path d="m288 264v32l-40 40-40-40v-32l1.199219-2.078125c11.519531 6.476563 24.722656 10.078125 38.800781 10.078125s27.28125-3.601562 38.800781-10.078125zm0 0" fill="#f5f7fa"/><path d="m360 114.640625v53.359375c0-17.679688-14.320312-32-32-32l-.960938.238281c-3.4375-13.917969-16.078124-24.238281-31.039062-24.238281h-26.640625c-13.839844 0-27.359375-4.480469-38.398437-12.800781l-14.960938-11.199219-11.28125 16.878906c-2.957031 4.480469-7.917969 7.121094-13.277344 7.121094h-7.441406c-8.800781 0-16 7.199219-16 16v8c-17.679688 0-32 14.320312-32 32v-68.878906c0-26.082032 15.839844-49.441406 40-59.121094l10.800781-8.640625c18.078125-14.480469 40.320313-22.640625 63.359375-23.28125 4.71875 0 9.441406.160156 14.078125.480469.320313 0 .640625 0 .882813.082031 24.71875 2.71875 46.957031 13.917969 63.679687 30.558594 19.277344 19.359375 31.199219 46 31.199219 75.441406zm0 0" fill="#f9d48a"/><path d="m360 168c0 17.679688-14.320312 32-32 32h-.398438c.238282-2.640625.398438-5.28125.398438-8v-48c0-2.640625-.320312-5.28125-.960938-7.761719l.960938-.238281c17.679688 0 32 14.320312 32 32zm0 0" fill="#f5f7fa"/><path d="m327.039062 136.238281c-3.4375-13.917969-16.078124-24.238281-31.039062-24.238281h-26.640625c-13.839844 0-27.359375-4.480469-38.398437-12.800781l-14.960938-11.199219-11.28125 16.878906c-2.957031 4.480469-7.917969 7.121094-13.277344 7.121094h-7.441406c-8.800781 0-16 7.199219-16 16v64c0 2.71875.160156 5.359375.398438 8 1.839843 18.878906 10.320312 35.839844 23.042968 48.558594 5.277344 5.28125 11.199219 9.761718 17.757813 13.363281 11.519531 6.476563 24.722656 10.078125 38.800781 10.078125s27.28125-3.601562 38.800781-10.078125c22.320313-12.402344 38.160157-35.203125 40.800781-61.921875.238282-2.640625.398438-5.28125.398438-8v-48c0-2.640625-.320312-5.28125-.960938-7.761719zm0 0" fill="#f5f7fa"/><path d="m168 168v24c0 2.71875.160156 5.359375.398438 8h-.398438c-17.679688 0-32-14.320312-32-32s14.320312-32 32-32zm0 0" fill="#f5f7fa"/><path d="m312 168c0 13.253906-10.746094 24-24 24s-24-10.746094-24-24 10.746094-24 24-24 24 10.746094 24 24zm0 0" fill="#f9d48a"/><path d="m232 168c0 13.253906-10.746094 24-24 24s-24-10.746094-24-24 10.746094-24 24-24 24 10.746094 24 24zm0 0" fill="#f9d48a"/><path d="m248 232c-8.824219 0-16-7.175781-16-16h-16c0 17.648438 14.351562 32 32 32s32-14.351562 32-32h-16c0 8.824219-7.175781 16-16 16zm0 0"/><path d="m265.910156.71875c-1.078125-.117188-2.167968-.160156-3.253906-.246094-1.28125-.074218-2.558594-.144531-3.847656-.191406-1.808594-.089844-3.585938-.28125-5.417969-.28125-.671875 0-1.335937.0703125-2.007813.0898438-1.125-.0195313-2.246093-.0898438-3.382812-.0898438-136.742188 0-248 111.246094-248 248s111.257812 248 248 248 248-111.246094 248-248c0-130.71875-101.679688-238.0625-230.089844-247.28125zm-4.878906 15.664062c1.089844.066407 2.160156.167969 3.242188.25 49.261718 5.4375 87.726562 47.277344 87.726562 97.96875v21.597657c-5.472656-4.144531-11.992188-6.832031-19.136719-7.710938-6.070312-14.367187-20.304687-24.488281-36.863281-24.488281h-26.664062c-12.03125 0-23.96875-3.976562-33.601563-11.191406l-21.695313-16.28125-15.941406 23.914062c-1.488281 2.230469-3.976562 3.558594-6.65625 3.558594h-7.441406c-13.230469 0-24 10.769531-24 24v.808594c-5.945312 1.214844-11.328125 3.855468-16 7.390625v-37.128907c0-22.871093 13.726562-43.160156 34.976562-51.644531l12.824219-9.824219c16.894531-13.523437 37.992188-21.082031 59.589844-21.523437 2.472656.035156 4.953125.074219 7.410156.1875.742188.046875 1.496094.0625 2.230469.117187zm138.96875 406.664063c-19.921875 17.320313-42.800781 31.289063-67.785156 41.066406l12.105468-48.433593-6.535156-19.625 13.199219-6.597657 14.34375-64.5625 10.910156 2.914063c13.992188 3.734375 23.761719 16.457031 23.761719 30.925781zm-62.984375-44.503906-18.800781 9.402343 9.464844 28.375-13.503907 54.015626c-5.589843 1.671874-11.273437 3.136718-17.03125 4.382812l13.695313-164.34375 39.023437 10.402344zm-206.34375-53.648438 14.34375 64.5625 13.199219 6.597657-6.535156 19.625 12.105468 48.433593c-24.984375-9.777343-47.863281-23.746093-67.785156-41.066406v-64.3125c0-14.476563 9.769531-27.191406 23.761719-30.925781zm37.65625 91.425781 9.464844-28.375-18.800781-9.402343-12.839844-57.773438 39.023437-10.402343 13.695313 164.34375c-5.757813-1.246094-11.4375-2.710938-17.03125-4.382813zm37.28125-111.398437 28.886719 28.886719-30.0625 15.03125-3.554688-42.65625zm.253906 61.09375 12.320313-6.160156 5.632812 16.886719-10.777344 75.417968zm31.90625 1.984375-5.128906-15.375 15.359375-7.679688 15.359375 7.679688-5.128906 15.375zm40.046875-8.144531 12.320313 6.160156-7.175781 86.136719-10.777344-75.417969zm13.75-11.015625-30.0625-15.03125 28.886719-28.886719 4.730469 1.261719zm-11.566406-56.152344-32 32-32-32v-18.800781c9.9375 3.898437 20.703125 6.113281 32 6.113281s22.0625-2.214844 32-6.113281zm-32-28.6875c-39.695312 0-72-32.296875-72-72v-16h1.136719c3.574219 13.769531 16 24 30.863281 24s27.289062-10.230469 30.863281-24h18.273438c3.574219 13.769531 16 24 30.863281 24s27.289062-10.230469 30.863281-24h1.136719v16c0 39.703125-32.304688 72-72 72zm-88-73.472656c-9.289062-3.3125-16-12.113282-16-22.527344s6.710938-19.214844 16-22.527344zm160-30.527344h-1.136719c-3.574219-13.769531-16-24-30.863281-24s-27.289062 10.230469-30.863281 24h-18.273438c-3.574219-13.769531-16-24-30.863281-24s-27.289062 10.230469-30.863281 24h-1.136719v-32c0-4.414062 3.59375-8 8-8h7.441406c8.039063 0 15.503906-3.992188 19.964844-10.6875l6.5625-9.832031 8.167969 6.128906c12.382812 9.285156 27.71875 14.398437 43.191406 14.398437h26.671875c13.230469 0 24 10.769532 24 24zm-16 8c0 8.824219-7.175781 16-16 16s-16-7.175781-16-16 7.175781-16 16-16 16 7.175781 16 16zm-80 0c0 8.824219-7.175781 16-16 16s-16-7.175781-16-16 7.175781-16 16-16 16 7.175781 16 16zm112-22.527344c9.289062 3.3125 16 12.113282 16 22.527344s-6.710938 19.214844-16 22.527344zm-320 102.527344c0-104.527344 69.503906-193.097656 164.710938-222.015625l-8.808594 7.046875c-26.71875 11.199219-43.902344 36.992188-43.902344 66.046875v68.921875c0 19.800781 14.503906 36.175781 33.425781 39.335938 4.300781 24.359374 18.613281 45.273437 38.574219 58.328124v24.191407l-84.367188 22.496093c-20.976562 5.59375-35.632812 24.671876-35.632812 46.382813v49.019531c-39.609375-41.640625-64-97.890625-64-159.753906zm209.382812 230.878906 13.554688-94.878906h18.125l13.554688 94.878906c-7.441407.730469-14.984376 1.121094-22.617188 1.121094s-15.175781-.390625-22.617188-1.121094zm190.617188-71.136718v-49.015626c0-21.710937-14.65625-40.789062-35.632812-46.382812l-84.367188-22.496094v-24.191406c19.960938-13.046875 34.265625-33.96875 38.574219-58.328125 18.921875-3.152344 33.425781-19.527344 33.425781-39.328125v-53.398438c0-32.402343-13.574219-61.640624-35.265625-82.503906 86.128906 33.917969 147.265625 117.878906 147.265625 215.902344 0 61.863281-24.390625 118.113281-64 159.742188zm0 0"/></svg>